nColumns=19
nRows=113
DataType=double
version=3
OpenSimVersion=4.1
endheader
time	ground_force_1_vx	ground_force_1_vy	ground_force_1_vz	ground_force_1_px	ground_force_1_py	ground_force_1_pz	ground_force_1_mx	ground_force_1_my	ground_force_1_mz	ground_force_2_vx	ground_force_2_vy	ground_force_2_vz	ground_force_2_px	ground_force_2_py	ground_force_2_pz	ground_force_2_mx	ground_force_2_my	ground_force_2_mz
0	-19.0883	90.7169	8.53962	0.0374639	0.006	-0.167916	0	0.507113	0	0	0	0	0.621604	0	-0.298059	0	0	0
0.01	-26.6195	122.922	9.60982	0.0430559	0.006	-0.167674	0	0.489426	0	0	0	0	0.621604	0	-0.298059	0	0	0
0.02	-35.0678	159.045	10.4381	0.0487219	0.006	-0.167496	0	0.475677	0	0	0	0	0.621604	0	-0.298059	0	0	0
0.03	-44.3344	198.333	10.8756	0.0538889	0.006	-0.167378	0	0.467158	0	0	0	0	0.621604	0	-0.298059	0	0	0
0.04	-54.2812	239.964	10.7819	0.0588149	0.006	-0.167286	0	0.466499	0	0	0	0	0.621604	0	-0.298059	0	0	0
0.05	-64.692	283.173	10.0506	0.0636059	0.006	-0.167202	0	0.475131	0	0	0	0	0.621604	0	-0.298059	0	0	0
0.06	-75.3079	327.227	8.61849	0.0682809	0.006	-0.167121	0	0.492212	0	0	0	0	0.621604	0	-0.298059	0	0	0
0.07	-85.8163	371.382	6.49054	0.0728089	0.006	-0.167052	0	0.516071	0	0	0	0	0.621604	0	-0.298059	0	0	0
0.08	-95.8412	414.847	3.75947	0.0771369	0.006	-0.167012	0	0.546444	0	0	0	0	0.621604	0	-0.298059	0	0	0
0.09	-104.992	456.814	0.592948	0.0812139	0.006	-0.167019	0	0.58356	0	0	0	0	0.621604	0	-0.298059	0	0	0
0.1	-112.937	496.574	-2.81003	0.0850169	0.006	-0.167087	0	0.625122	0	0	0	0	0.621604	0	-0.298059	0	0	0
0.11	-119.431	533.54	-6.25648	0.0885399	0.006	-0.16722	0	0.665553	0	0	0	0	0.621604	0	-0.298059	0	0	0
0.12	-124.297	567.188	-9.58231	0.0917949	0.006	-0.167418	0	0.696856	0	0	0	0	0.621604	0	-0.298059	0	0	0
0.13	-127.43	597.001	-12.6649	0.0948009	0.006	-0.167676	0	0.709993	0	0	0	0	0.621604	0	-0.298059	0	0	0
0.14	-128.797	622.477	-15.4246	0.0975899	0.006	-0.167981	0	0.696828	0	0	0	0	0.621604	0	-0.298059	0	0	0
0.15	-128.443	643.178	-17.8131	0.1002	0.006	-0.168321	0	0.652316	0	0	0	0	0.621604	0	-0.298059	0	0	0
0.16	-126.494	658.772	-19.8091	0.102677	0.006	-0.168684	0	0.57495	0	0	0	0	0.621604	0	-0.298059	0	0	0
0.17	-123.138	669.08	-21.414	0.105069	0.006	-0.169055	0	0.466684	0	0	0	0	0.621604	0	-0.298059	0	0	0
0.18	-118.598	674.108	-22.6398	0.107423	0.006	-0.169426	0	0.33264	0	0	0	0	0.621604	0	-0.298059	0	0	0
0.19	-113.111	674.065	-23.5036	0.109778	0.006	-0.16979	0	0.179924	0	0	0	0	0.621604	0	-0.298059	0	0	0
0.2	-106.896	669.338	-24.0262	0.11216	0.006	-0.170144	0	0.016155	0	0	0	0	0.621604	0	-0.298059	0	0	0
0.21	-100.145	660.464	-24.2308	0.114583	0.006	-0.170487	0	-0.151696	0	0	0	0	0.621604	0	-0.298059	0	0	0
0.22	-93.0251	648.076	-24.1433	0.117054	0.006	-0.170818	0	-0.31816	0	0	0	0	0.621604	0	-0.298059	0	0	0
0.23	-85.6832	632.857	-23.7951	0.119575	0.006	-0.171138	0	-0.479725	0	0	0	0	0.621604	0	-0.298059	0	0	0
0.24	-78.2543	615.507	-23.2288	0.122145	0.006	-0.171445	0	-0.634712	0	0	0	0	0.621604	0	-0.298059	0	0	0
0.25	-70.8649	596.717	-22.5006	0.124768	0.006	-0.171736	0	-0.782902	0	0	0	0	0.621604	0	-0.298059	0	0	0
0.26	-63.6331	577.156	-21.6776	0.127452	0.006	-0.172002	0	-0.925	0	0	0	0	0.621604	0	-0.298059	0	0	0
0.27	-56.665	557.466	-20.8313	0.13021	0.006	-0.172237	0	-1.06199	0	0	0	0	0.621604	0	-0.298059	0	0	0
0.28	-50.0499	538.245	-20.0295	0.133058	0.006	-0.172432	0	-1.19475	0	0	0	0	0.621604	0	-0.298059	0	0	0
0.29	-43.8564	520.051	-19.3299	0.136013	0.006	-0.172577	0	-1.32407	0	0	0	0	0.621604	0	-0.298059	0	0	0
0.3	-38.1287	503.392	-18.7745	0.139091	0.006	-0.172664	0	-1.45066	0	0	0	0	0.621604	0	-0.298059	0	0	0
0.31	-32.8868	488.715	-18.3883	0.142302	0.006	-0.172688	0	-1.57528	0	0	0	0	0.621604	0	-0.298059	0	0	0
0.32	-28.1285	476.394	-18.1817	0.145652	0.006	-0.172643	0	-1.69901	0	0	0	0	0.621604	0	-0.298059	0	0	0
0.33	-23.8326	466.714	-18.1544	0.149133	0.006	-0.172528	0	-1.82347	0	0	0	0	0.621604	0	-0.298059	0	0	0
0.34	-19.9612	459.872	-18.2995	0.152732	0.006	-0.172344	0	-1.95081	0	0	0	0	0.621604	0	-0.298059	0	0	0
0.35	-16.4597	455.976	-18.6082	0.156424	0.006	-0.172095	0	-2.08356	0	0	0	0	0.621604	0	-0.298059	0	0	0
0.36	-13.2594	455.054	-19.0728	0.160178	0.006	-0.171785	0	-2.22439	0	0	0	0	0.621604	0	-0.298059	0	0	0
0.37	-10.2807	457.057	-19.6876	0.16396	0.006	-0.171421	0	-2.37555	0	0	0	0	0.621604	0	-0.298059	0	0	0
0.38	-7.43805	461.877	-20.4481	0.167739	0.006	-0.171009	0	-2.53824	0	0	0	0	0.621604	0	-0.298059	0	0	0
0.39	-4.64325	469.348	-21.3496	0.171488	0.006	-0.170558	0	-2.71223	0	0	0	0	0.621604	0	-0.298059	0	0	0
0.4	-1.80847	479.258	-22.386	0.175185	0.006	-0.170075	0	-2.89572	0	0	0	0	0.621604	0	-0.298059	0	0	0
0.41	1.15126	491.345	-23.5476	0.178813	0.006	-0.169569	0	-3.08537	0	0	0	0	0.621604	0	-0.298059	0	0	0
0.42	4.31658	505.297	-24.8203	0.182363	0.006	-0.16905	0	-3.27657	0	0	0	0	0.621604	0	-0.298059	0	0	0
0.43	7.76214	520.739	-26.1844	0.185827	0.006	-0.168525	0	-3.46369	0	0	0	0	0.621604	0	-0.298059	0	0	0
0.44	11.5541	537.244	-27.6152	0.189202	0.006	-0.168002	0	-3.64065	0	0	0	0	0.621604	0	-0.298059	0	0	0
0.45	15.7462	554.344	-29.0817	0.192483	0.006	-0.16749	0	-3.80151	0	0	0	0	0.621604	0	-0.298059	0	0	0
0.46	20.3733	571.551	-30.5454	0.195667	0.006	-0.166998	0	-3.94109	0	0	0	0	0.621604	0	-0.298059	0	0	0
0.47	25.4459	588.368	-31.9603	0.19875	0.006	-0.166532	0	-4.05518	0	0	0	0	0.621604	0	-0.298059	0	0	0
0.48	30.9475	604.296	-33.2759	0.201727	0.006	-0.1661	0	-4.14063	0	0	0	0	0.621604	0	-0.298059	0	0	0
0.49	36.8341	618.824	-34.4424	0.204597	0.006	-0.165707	0	-4.19512	0	0	0	0	0.621604	0	-0.298059	0	0	0
0.5	43.0365	631.441	-35.4135	0.207357	0.006	-0.165356	0	-4.21728	0	0	0	0	0.621604	0	-0.298059	0	0	0
0.51	49.4638	641.63	-36.1465	0.210004	0.006	-0.165051	0	-4.20676	0	0	0	0	0.621604	0	-0.298059	0	0	0
0.52	56.0061	648.878	-36.6055	0.21254	0.006	-0.164793	0	-4.1641	0	0	0	0	0.621604	0	-0.298059	0	0	0
0.53	62.5326	652.672	-36.7631	0.214965	0.006	-0.164582	0	-4.09039	0	0	0	0	0.621604	0	-0.298059	0	0	0
0.54	68.8889	652.52	-36.5997	0.217286	0.006	-0.164416	0	-3.98704	0	0.0194547	34.1235	-5.58663	0.658043	0.006	-0.312237	0	0.186944	0
0.55	74.8973	647.967	-36.1025	0.219516	0.006	-0.164295	0	-3.85559	0	-2.04457	54.9428	-5.95632	0.688518	0.006	-0.323587	0	0.26008	0
0.56	80.3624	638.633	-35.2653	0.221668	0.006	-0.164216	0	-3.69777	0	-4.95583	80.3676	-6.17156	0.706342	0.006	-0.329785	0	0.288377	0
0.57	85.0798	624.24	-34.0898	0.223759	0.006	-0.164178	0	-3.51538	0	-8.85565	110.444	-6.15045	0.718547	0.006	-0.3337	0	0.295693	0
0.58	88.8473	604.647	-32.5854	0.225805	0.006	-0.164177	0	-3.31033	0	-13.8703	144.9	-5.79493	0.72787	0.006	-0.336432	0	0.291404	0
0.59	91.4766	579.867	-30.77	0.227827	0.006	-0.164209	0	-3.08485	0	-20.0573	183.184	-5.0032	0.735607	0.006	-0.3385	0	0.280542	0
0.6	92.8058	550.094	-28.671	0.229841	0.006	-0.164271	0	-2.84192	0	-27.3403	224.612	-3.68048	0.742425	0.006	-0.340179	0	0.266006	0
0.61	92.7103	515.706	-26.3264	0.231868	0.006	-0.164356	0	-2.58546	0	-35.5324	268.423	-1.74665	0.748675	0.006	-0.341624	0	0.248859	0
0.62	91.113	477.263	-23.7866	0.233925	0.006	-0.164458	0	-2.31984	0	-44.3616	313.733	0.841014	0.754539	0.006	-0.342925	0	0.228267	0
0.63	87.9949	435.496	-21.1161	0.236036	0.006	-0.164571	0	-2.04945	0	-53.4873	359.511	4.06677	0.760108	0.006	-0.344131	0	0.201102	0
0.64	83.4061	391.282	-18.3897	0.238225	0.006	-0.164685	0	-1.77849	0	-62.5242	404.592	7.84405	0.765417	0.006	-0.345268	0	0.162053	0
0.65	77.4714	345.624	-15.6858	0.240523	0.006	-0.164791	0	-1.51127	0	-71.089	447.812	12.0247	0.770494	0.006	-0.346352	0	0.105407	0
0.66	70.3934	299.614	-13.0808	0.24297	0.006	-0.164881	0	-1.25234	0	-78.8766	488.207	16.4384	0.775369	0.006	-0.347397	0	0.028262	0
0.67	62.4491	254.376	-10.6433	0.245619	0.006	-0.164946	0	-1.00651	0	-85.682	525.147	20.9157	0.78008	0.006	-0.348412	0	-0.067964	0
0.68	53.9719	211.006	-8.42833	0.248548	0.006	-0.164978	0	-0.77833	0	-91.3728	558.304	25.2832	0.784653	0.006	-0.3494	0	-0.17848	0
0.69	45.3296	170.491	-6.47119	0.25188	0.006	-0.164969	0	-0.57174	0	-95.8651	587.542	29.368	0.789102	0.006	-0.350362	0	-0.29566	0
0.7	36.8902	133.635	-4.78379	0.255815	0.006	-0.164911	0	-0.389765	0	-99.1064	612.799	33.0233	0.793432	0.006	-0.351298	0	-0.408668	0
0.71	28.986	101.006	-3.35804	0.260713	0.006	-0.164787	0	-0.234162	0	-101.069	634.015	36.1426	0.797642	0.006	-0.352208	0	-0.505068	0
0.72	21.8753	72.9046	-2.17542	0.26727	0.006	-0.164564	0	-0.105486	0	-101.765	651.117	38.6645	0.801734	0.006	-0.353096	0	-0.572868	0
0.73	15.7166	49.391	-1.21425	0.277007	0.006	-0.164158	0	-0.003508	0	-101.252	664.023	40.5739	0.805718	0.006	-0.353968	0	-0.602093	0
0.74	10.5624	30.3161	-0.454492	0.293949	0.006	-0.163339	0	0.07133	0	-99.6332	672.685	41.894	0.809609	0.006	-0.354834	0	-0.586059	0
0.75	0	0	0	0.323801	0	-0.163003	0	0	0	-97.0385	677.128	42.6738	0.813427	0.006	-0.3557	0	-0.52189	0
0.76	0	0	0	0.352084	0	-0.164597	0	0	0	-93.6122	677.496	42.9725	0.817193	0.006	-0.356573	0	-0.410172	0
0.77	0	0	0	0.380367	0	-0.166191	0	0	0	-89.5018	674.072	42.8486	0.820926	0.006	-0.357455	0	-0.254298	0
0.78	0	0	0	0.40865	0	-0.167785	0	0	0	-84.8537	667.273	42.3542	0.824639	0.006	-0.358344	0	-0.059785	0
0.79	0	0	0	0.436933	0	-0.169379	0	0	0	-79.8114	657.608	41.5343	0.828345	0.006	-0.359235	0	0.166422	0
0.8	0	0	0	0.465216	0	-0.170973	0	0	0	-74.5126	645.631	40.4301	0.832049	0.006	-0.360117	0	0.41672	0
0.81	0	0	0	0.493499	0	-0.172567	0	0	0	-69.0857	631.9	39.0819	0.835758	0.006	-0.360979	0	0.68369	0
0.82	0	0	0	0.521782	0	-0.174161	0	0	0	-63.6463	616.948	37.5318	0.839474	0.006	-0.361808	0	0.960602	0
0.83	0	0	0	0.550065	0	-0.175755	0	0	0	-58.2946	601.258	35.8264	0.843197	0.006	-0.362592	0	1.24177	0
0.84	0	0	0	0.578348	0	-0.177349	0	0	0	-53.1126	585.26	34.0193	0.846921	0.006	-0.363319	0	1.52258	0
0.85	0	0	0	0.606631	0	-0.178943	0	0	0	-48.1641	569.327	32.172	0.85064	0.006	-0.36398	0	1.79915	0
0.86	0	0	0	0.634914	0	-0.180537	0	0	0	-43.4959	553.78	30.3527	0.854344	0.006	-0.364567	0	2.06801	0
0.87	0	0	0	0.663197	0	-0.182131	0	0	0	-39.1401	538.893	28.6311	0.858023	0.006	-0.365078	0	2.32598	0
0.88	0	0	0	0.69148	0	-0.183725	0	0	0	-35.1126	524.901	27.0726	0.861666	0.006	-0.365508	0	2.57024	0
0.89	0	0	0	0.719763	0	-0.185318	0	0	0	-31.4123	511.999	25.7331	0.865261	0.006	-0.365856	0	2.79853	0
0.9	0	0	0	0.748046	0	-0.186912	0	0	0	-28.0177	500.354	24.6558	0.868795	0.006	-0.366119	0	3.00931	0
0.91	0	0	0	0.776329	0	-0.188506	0	0	0	-24.886	490.116	23.8692	0.872251	0.006	-0.366295	0	3.20197	0
0.92	0	0	0	0.804612	0	-0.1901	0	0	0	-21.9547	481.427	23.3872	0.87561	0.006	-0.366381	0	3.37695	0
0.93	0	0	0	0.832895	0	-0.191694	0	0	0	-19.147	474.426	23.2112	0.87885	0.006	-0.366372	0	3.5357	0
0.94	0	0	0	0.861178	0	-0.193288	0	0	0	-16.3766	469.258	23.3319	0.881945	0.006	-0.366269	0	3.68054	0
0.95	0	0	0	0.889461	0	-0.194882	0	0	0	-13.5519	466.069	23.7321	0.884871	0.006	-0.366069	0	3.81431	0
0.96	0	0	0	0.917744	0	-0.196476	0	0	0	-10.5804	465.006	24.3901	0.887604	0.006	-0.365778	0	3.93989	0
0.97	0	0	0	0.946027	0	-0.19807	0	0	0	-7.37196	466.206	25.2833	0.890125	0.006	-0.365406	0	4.0596	0
0.98	0	0	0	0.97431	0	-0.199664	0	0	0	-3.84068	469.778	26.3902	0.892422	0.006	-0.364968	0	4.17482	0
0.99	0	0	0	1.00259	0	-0.201258	0	0	0	0.0931161	475.79	27.6913	0.894491	0.006	-0.364486	0	4.28566	0
1	0	0	0	1.03088	0	-0.202852	0	0	0	4.50096	484.247	29.1681	0.896342	0.006	-0.363981	0	4.39089	0
1.01	0	0	0	1.05916	0	-0.204446	0	0	0	9.44353	495.084	30.8007	0.897992	0.006	-0.363478	0	4.48795	0
1.02	0	0	0	1.08744	0	-0.20604	0	0	0	14.9669	508.146	32.5651	0.899466	0.006	-0.362998	0	4.57327	0
1.03	0	0	0	1.11573	0	-0.207634	0	0	0	21.0993	523.18	34.433	0.900796	0.006	-0.362558	0	4.64241	0
1.04	0	0	0	1.14401	0	-0.209228	0	0	0	27.8489	539.829	36.3708	0.902016	0.006	-0.362171	0	4.69029	0
1.05	0	0	0	1.17229	0	-0.210822	0	0	0	35.2043	557.624	38.341	0.903159	0.006	-0.361842	0	4.71134	0
1.06	0	0	0	1.20057	0	-0.212415	0	0	0	43.1328	575.992	40.3027	0.904255	0.006	-0.361575	0	4.69992	0
1.07	0	0	0	1.22886	0	-0.214009	0	0	0	51.5761	594.271	42.2123	0.905331	0.006	-0.361365	0	4.65091	0
1.08	0	0	0	1.25714	0	-0.215603	0	0	0	60.4452	611.735	44.0212	0.90641	0.006	-0.361208	0	4.56056	0
1.09	0	0	0	1.28542	0	-0.217197	0	0	0	69.6157	627.623	45.6715	0.907507	0.006	-0.361092	0	4.4274	0
1.1	0	0	0	1.31371	0	-0.218791	0	0	0	78.9274	641.168	47.0944	0.908638	0.006	-0.361007	0	4.25281	0
1.11	0	0	0	1.34199	0	-0.220385	0	0	0	88.1876	651.615	48.2114	0.909812	0.006	-0.360942	0	4.04116	0
1.12	0	0	0	1.37027	0	-0.221979	0	0	0	97.1764	658.246	48.9405	0.911037	0.006	-0.360884	0	3.79954	0
